<svg width="68" height="68" viewBox="0 0 68 68" fill="none" xmlns="http://www.w3.org/2000/svg">
<g clip-path="url(#clip0_78_40)">
<path d="M24.5 22.5L18 26.5V35.5L19.5 37L24.5 34" stroke="black"/>
<path d="M24 22.5L24.5 34L22.5 35L18 37.5L17.5 35L18 26.5L24 22.5Z" fill="#FFD645" stroke="black"/>
<path d="M26 31.5L27.5 12.5L33.5 2L37 4L44 21.5L49 27.5V38L44 35H38.5L42 45H26L29 35L26 31.5Z" fill="#FFD645" stroke="black"/>
<path d="M62.0234 7.96868H40.9753C40.9096 7.96868 40.8446 7.97227 40.7805 7.97851C39.3922 5.24749 37.5922 2.76695 35.4087 0.583512C34.6309 -0.194504 33.3694 -0.194504 32.5914 0.583512C30.408 2.76695 28.6079 5.24762 27.2197 7.97865C27.1554 7.97227 27.0904 7.96868 27.0247 7.96868H5.97656C2.68109 7.96868 0 10.6499 0 13.9452V49.8046C0 53.1001 2.68109 55.7812 5.97656 55.7812H23.2863L20.6012 64.0156H18.0625C16.9623 64.0156 16.0703 64.9075 16.0703 66.0078C16.0703 67.108 16.9623 67.9999 18.0625 67.9999C18.3644 67.9999 49.6526 67.9999 49.9375 67.9999C51.0377 67.9999 51.9297 67.108 51.9297 66.0078C51.9297 64.9075 51.0377 64.0156 49.9375 64.0156H47.3989L44.7139 55.7812H62.0234C65.3189 55.7812 68 53.1001 68 49.8046V13.9452C68 10.6499 65.3189 7.96868 62.0234 7.96868ZM34 4.92794C35.6119 6.82384 36.9171 8.92268 37.8926 11.1623C36.6693 11.6816 35.3482 11.9531 34 11.9531C32.6518 11.9531 31.3307 11.6816 30.1074 11.1622C31.0829 8.92268 32.3881 6.82397 34 4.92794ZM28.0234 21.9141C28.0234 19.7205 28.1139 17.6674 28.8119 14.9382C30.4516 15.5952 32.2094 15.9374 34 15.9374C35.7906 15.9374 37.5484 15.5952 39.1881 14.938C39.878 17.6358 39.9766 19.696 39.9766 21.9141V31.8751C38.7668 31.8751 29.9717 31.8751 28.0234 31.8751V21.9141ZM39.2048 43.8281H28.7953L31.4516 35.8593H36.5485L39.2048 43.8281ZM3.98438 13.9452C3.98438 12.8468 4.87807 11.9531 5.97656 11.9531H25.5525C24.6658 14.5926 24.167 17.3277 24.062 20.1181C19.5096 21.0349 16.0703 25.0643 16.0703 29.8829V37.8516C16.0703 38.5421 16.4278 39.1833 17.0151 39.5463C17.6036 39.9101 18.3372 39.9417 18.9534 39.6336L26.5015 35.8593H27.2515L24.5953 43.8281H3.98438V13.9452ZM24.0391 24.2476V32.636L20.0547 34.6283V29.8829C20.0547 27.2855 21.72 25.0698 24.0391 24.2476ZM24.792 64.0156L27.4772 55.7812H40.5231L43.2082 64.0156H24.792ZM64.0156 49.8046C64.0156 50.9031 63.1219 51.7968 62.0234 51.7968C61.404 51.7968 6.29173 51.7968 5.97656 51.7968C4.87807 51.7968 3.98438 50.9031 3.98438 49.8046V47.8124C6.16436 47.8124 61.7099 47.8124 64.0156 47.8124V49.8046ZM64.0156 43.8281H43.4047L40.7485 35.8593H41.4985L49.0466 39.6334C49.6631 39.9417 50.3965 39.9098 50.9849 39.5462C51.5722 39.1832 51.9297 38.542 51.9297 37.8515V29.8827C51.9297 25.0643 48.4904 21.0348 43.938 20.1181C43.8332 17.3276 43.3342 14.5926 42.4475 11.9531H62.0234C63.1219 11.9531 64.0156 12.8468 64.0156 13.9452V43.8281ZM43.9609 32.636V24.2476C46.28 25.0699 47.9453 27.2856 47.9453 29.8829V34.6281L43.9609 32.636Z" fill="black"/>
<path d="M34 23.9064C35.1003 23.9064 35.9922 23.0144 35.9922 21.9142C35.9922 20.8139 35.1003 19.922 34 19.922C32.8997 19.922 32.0078 20.8139 32.0078 21.9142C32.0078 23.0144 32.8997 23.9064 34 23.9064Z" fill="black"/>
</g>
<defs>
<clipPath id="clip0_78_40">
<rect width="68" height="68" fill="white"/>
</clipPath>
</defs>
</svg>
